<svg xmlns="http://www.w3.org/2000/svg" viewBox="0 0 130 32" height="32">

  <g transform="translate(0, 0) scale(0.0473)">
    <g transform="translate(-174, -174)">
      <path d="M 401.15 846.85 L 395.50 849.50 L 334.50 849.64 C300.95,849.71 270.80,849.41 267.50,848.95 C264.20,848.50 257.49,846.96 252.60,845.53 C209.80,833.00 180.08,797.40 174.93,752.50 C174.24,746.49 174.00,665.89 174.20,510.00 L 174.50 276.50 L 177.64 265.00 C183.16,244.78 189.87,231.65 202.74,215.92 C219.69,195.19 246.23,180.07 273.11,175.83 C279.90,174.75 325.85,174.50 514.00,174.50 C733.65,174.50 746.99,174.60 755.31,176.29 C778.69,181.05 797.55,191.36 815.01,208.93 C829.12,223.12 837.66,236.92 843.93,255.63 C844.67,257.85 845.33,259.62 845.90,261.41 C850.01,274.26 850.01,288.42 850.00,480.59 C850.00,492.11 850.00,504.28 850.00,517.12 C850.00,527.27 850.00,536.99 850.00,546.31 C850.01,745.29 850.01,758.46 846.32,770.50 C845.88,771.91 845.40,773.31 844.86,775.00 C835.54,803.95 810.08,831.50 782.96,841.96 C765.12,848.84 762.35,849.24 729.81,849.73 C704.16,850.12 699.33,849.95 694.31,848.51 C683.79,845.48 675.38,838.47 671.19,829.24 C669.65,825.83 669.45,816.78 668.95,728.00 C668.41,631.38 668.38,630.42 666.18,622.00 C652.62,570.09 619.49,536.71 571.84,526.97 C559.75,524.50 536.86,524.30 523.03,526.54 C497.84,530.63 474.14,542.83 455.88,561.09 C439.91,577.08 431.28,592.63 423.73,619.00 C421.62,626.38 421.58,628.10 421.04,725.50 L 420.50 824.50 L 417.85 830.15 C414.48,837.34 408.34,843.48 401.15,846.85 ZM 269.26 790.46 C273.33,791.55 283.35,791.88 314.24,791.93 L 353.99 792.00 L 354.24 558.75 L 354.50 325.50 L 356.85 320.76 C362.06,310.28 372.18,303.47 384.21,302.34 C399.42,300.92 413.51,309.90 418.59,324.24 C419.88,327.89 420.13,340.50 420.30,412.17 C420.41,458.18 420.81,496.15 421.20,496.53 C421.58,496.91 423.83,495.67 426.20,493.77 C431.64,489.40 446.57,480.24 455.58,475.74 C500.54,453.31 558.92,448.85 607.00,464.19 C638.77,474.32 667.76,492.89 689.20,516.83 C709.74,539.77 726.41,573.63 732.85,605.50 C736.79,625.03 737.00,630.34 737.00,712.16 L 737.00 792.00 L 743.29 792.00 C764.78,792.00 783.60,777.80 790.28,756.54 L 792.50 749.50 L 792.50 283.50 L 789.93 275.34 C783.91,256.26 770.35,241.58 752.46,234.77 L 746.50 232.50 L 280.50 232.50 L 273.34 234.75 C264.14,237.65 252.22,245.68 246.42,252.91 C243.96,255.99 240.38,261.65 238.48,265.50 C237.64,267.20 236.91,268.41 236.27,269.67 C231.97,278.18 231.97,288.87 232.00,467.89 C232.00,483.03 232.00,499.38 232.00,517.03 C232.00,727.04 232.16,750.16 233.60,755.07 C238.62,772.19 252.48,785.94 269.26,790.46 Z" fill="white"/>
      <path d="M 571.00 734.17 C562.33,737.06 560.18,737.37 546.50,737.67 C533.20,737.97 530.48,737.73 522.50,735.61 C495.61,728.47 475.49,712.13 463.55,687.72 C456.87,674.08 454.64,664.31 454.62,648.50 C454.60,638.04 455.02,633.98 456.81,627.68 C464.53,600.50 479.47,581.95 503.58,569.61 C527.96,557.13 557.97,556.69 582.74,568.45 C595.68,574.60 607.69,584.49 616.61,596.36 C634.56,620.23 639.02,652.18 628.36,680.45 C618.67,706.17 598.58,724.98 571.00,734.17 Z" fill="rgb(234,59,37)"/>
    </g>
  </g>
  <!-- hareki. text with black background -->
  <rect x="36" y="0" width="94" height="32" rx="4" fill="#0d1117"/>
  <text x="38" y="27" font-family="system-ui, -apple-system, sans-serif" font-size="30" font-weight="600" fill="white">hareki.</text>
</svg>
